# xmcd
#
# Track frame offsets:
#	150
#	11655
#	22414
#	34965
#	44645
#	55041
#	64350
#	75614
#	87702
#	97782
#	110094
#	123337
#	135174
#	145420
#	160333
#	172759
#	183828
#	197673
#	209098
#	223109
#
# Disc length: 3146 seconds
# Revision: 0
# Processed by: cddbd v1.5.2PL0 Copyright (c) Steve Scherf et al.
# Submitted via: dBpowerAMP V12.0
#
DISCID=270c4814
DTITLE=Various Artist - Mega Country [Cd 1]
DYEAR=1900
DGENRE=Country
TTITLE0=KENNY ROGERS - ME AND BOBBY MCGEE
TTITLE1=DON GIBSON - OH LONESOME ME
TTITLE2=JOHNNY CASH - FOLSOM PRISON BLUES
TTITLE3=FRANKIE LAINE - OK CORRAL
TTITLE4=PATSY CLINE - THREE CIGARETTES IN AN ASHTRAY
TTITLE5=WILLIE NELSON - ONE STEP BEYOND
TTITLE6=CARL SMITH - HEY JOE
TTITLE7=DOLLY PARTON - MAKIN' BELIEVE
TTITLE8=MICKEY GILLEY - LONELY WINE
TTITLE9=JOHNNY PAYCHECK - TAKE THIS JOB AND SHOVE IT
TTITLE10=VAUGHN MONROE - RIDERS IN THE SKY
TTITLE11=BILLIE JOE SPEARS - LOOK WHAT THEY'VE DONE TO MY SONG MA
TTITLE12=DAVE DUDDLEY - SIX DAYS ON THE ROAD
TTITLE13=JEANNIE C. RILEY - HARPER VALLEY P.T.A.
TTITLE14=FARON YOUNG - IT'S FOUR IN THE MORNING
TTITLE15=CONWAY TWITTY - IT'S ONLY MAKE BELIEVE
TTITLE16=LACY J. DALTON - TENNESSEE WALTZ
TTITLE17=EDDY ARNOLD - KENTUCKY WALTZ
TTITLE18=ROY ORBISON - TWENTY TWO DAYS
TTITLE19=HANK WILLIAMS - JAMBALAYA
EXTD=
EXTT0=
EXTT1=
EXTT2=
EXTT3=
EXTT4=
EXTT5=
EXTT6=
EXTT7=
EXTT8=
EXTT9=
EXTT10=
EXTT11=
EXTT12=
EXTT13=
EXTT14=
EXTT15=
EXTT16=
EXTT17=
EXTT18=
EXTT19=
PLAYORDER=
